<svg width="48" height="48" viewBox="0 0 48 48" fill="none" xmlns="http://www.w3.org/2000/svg">
<g filter="url(#filter0_i_17_1145)">
<path fill-rule="evenodd" clip-rule="evenodd" d="M24 40C25.0544 40 25.9182 40.8159 25.9945 41.8507L26 42V44C26 45.1046 25.1046 46 24 46C22.9456 46 22.0818 45.1841 22.0055 44.1493L22 44V42C22 40.8954 22.8954 40 24 40ZM24 2C25.0544 2 25.9182 2.81588 25.9945 3.85074L26 4V6C26 7.10457 25.1046 8 24 8C22.9456 8 22.0818 7.18412 22.0055 6.14926L22 6V4C22 2.89543 22.8954 2 24 2ZM8 24C8 25.0544 7.18412 25.9182 6.14926 25.9945L6 26H4C2.89543 26 2 25.1046 2 24C2 22.9456 2.81588 22.0818 3.85074 22.0055L4 22H6C7.10457 22 8 22.8954 8 24ZM46 24C46 25.0544 45.1841 25.9182 44.1493 25.9945L44 26H42C40.8954 26 40 25.1046 40 24C40 22.9456 40.8159 22.0818 41.8507 22.0055L42 22H44C45.1046 22 46 22.8954 46 24ZM12.6863 12.6863C11.9407 13.4318 10.753 13.4657 9.96729 12.788L9.85786 12.6863L8.44365 11.2721C7.6626 10.491 7.6626 9.2247 8.44365 8.44365C9.1892 7.6981 10.3769 7.66422 11.1627 8.34199L11.2721 8.44365L12.6863 9.85786C13.4673 10.6389 13.4673 11.9052 12.6863 12.6863ZM39.5564 39.5564C38.8108 40.3019 37.6231 40.3358 36.8373 39.658L36.7279 39.5564L35.3137 38.1421C34.5327 37.3611 34.5327 36.0948 35.3137 35.3137C36.0593 34.5682 37.247 34.5343 38.0327 35.212L38.1421 35.3137L39.5564 36.7279C40.3374 37.509 40.3374 38.7753 39.5564 39.5564ZM12.6863 35.3137C13.4318 36.0593 13.4657 37.247 12.788 38.0327L12.6863 38.1421L11.2721 39.5564C10.491 40.3374 9.2247 40.3374 8.44365 39.5564C7.6981 38.8108 7.66422 37.6231 8.34199 36.8373L8.44365 36.7279L9.85786 35.3137C10.6389 34.5327 11.9052 34.5327 12.6863 35.3137ZM39.5564 8.44365C40.3019 9.1892 40.3358 10.3769 39.658 11.1627L39.5564 11.2721L38.1421 12.6863C37.3611 13.4673 36.0948 13.4673 35.3137 12.6863C34.5682 11.9407 34.5343 10.753 35.212 9.96729L35.3137 9.85786L36.7279 8.44365C37.509 7.6626 38.7753 7.6626 39.5564 8.44365ZM24 10C16.268 10 10 16.268 10 24C10 31.732 16.268 38 24 38C31.732 38 38 31.732 38 24C38 16.268 31.732 10 24 10Z" fill="url(#paint0_linear_17_1145)"/>
</g>
<defs>
<filter id="filter0_i_17_1145" x="2" y="2" width="44" height="46" filterUnits="userSpaceOnUse" color-interpolation-filters="sRGB">
<feFlood flood-opacity="0" result="BackgroundImageFix"/>
<feBlend mode="normal" in="SourceGraphic" in2="BackgroundImageFix" result="shape"/>
<feOffset in="SourceAlpha" dy="2"/>
<feGaussianBlur stdDeviation="4"/>
<feComposite in="SourceAlpha" operator="out" result="innerShadowMask"/>
<feFlood flood-color="white"/>
<feComposite in2="innerShadowMask" operator="in"/>
<feBlend mode="overlay" in2="shape" result="effect1_innerShadow_17_1145"/>
</filter>
<linearGradient id="paint0_linear_17_1145" x1="24" y1="2" x2="24" y2="46" gradientUnits="userSpaceOnUse">
<stop stop-color="#FFD358"/>
<stop offset="1" stop-color="#FA6C21"/>
</linearGradient>
</defs>
</svg>
