<svg width="48" height="48" viewBox="0 0 48 48" fill="none" xmlns="http://www.w3.org/2000/svg">
<g filter="url(#filter0_i_2030_901)">
<path fill-rule="evenodd" clip-rule="evenodd" d="M18 4C9.16344 4 2 11.1634 2 20L2.00337 20.3313C2.16721 28.3732 8.28258 35.0157 16.2043 35.9002L16.468 35.927L16.5604 35.9515C16.7019 35.9833 16.849 36 17 36H35L35.2943 35.996C41.262 35.8234 46 30.9545 46 25C46 18.9249 41.0751 14 35 14L34.5683 14.0083C34.1378 14.025 33.7111 14.0666 33.2899 14.1325L32.915 14.198L32.8113 13.9358C30.3965 8.033 24.6037 4 18 4Z" fill="url(#paint0_linear_2030_901)"/>
</g>
<path fill-rule="evenodd" clip-rule="evenodd" d="M20.0718 34.6289C20.2769 34.1161 20.8589 33.8667 21.3717 34.0718C21.8844 34.2769 22.1339 34.8589 21.9287 35.3717L19.9287 40.3717C19.7236 40.8844 19.1417 41.1339 18.6289 40.9287C18.1161 40.7236 17.8667 40.1417 18.0718 39.6289L20.0718 34.6289ZM29.0718 34.6289C29.2769 34.1161 29.8589 33.8667 30.3717 34.0718C30.8844 34.2769 31.1339 34.8589 30.9287 35.3717L28.9287 40.3717C28.7236 40.8844 28.1417 41.1339 27.6289 40.9287C27.1161 40.7236 26.8667 40.1417 27.0718 39.6289L29.0718 34.6289Z" fill="url(#paint1_linear_2030_901)"/>
<defs>
<filter id="filter0_i_2030_901" x="0" y="4" width="46" height="36" filterUnits="userSpaceOnUse" color-interpolation-filters="sRGB">
<feFlood flood-opacity="0" result="BackgroundImageFix"/>
<feBlend mode="normal" in="SourceGraphic" in2="BackgroundImageFix" result="shape"/>
<feOffset in="SourceAlpha" dx="-2" dy="4"/>
<feGaussianBlur stdDeviation="2"/>
<feComposite in="SourceAlpha" operator="out" result="innerShadowMask"/>
<feFlood flood-color="white"/>
<feComposite in2="innerShadowMask" operator="in"/>
<feBlend mode="normal" in2="shape" result="effect1_innerShadow_2030_901"/>
</filter>
<linearGradient id="paint0_linear_2030_901" x1="5.08244" y1="4" x2="46.4873" y2="35.3565" gradientUnits="userSpaceOnUse">
<stop stop-color="white"/>
<stop offset="1" stop-color="#B4E6FB"/>
</linearGradient>
<linearGradient id="paint1_linear_2030_901" x1="18" y1="34" x2="18" y2="41.0005" gradientUnits="userSpaceOnUse">
<stop stop-color="#4CAFFF"/>
<stop offset="1" stop-color="#8FD5FF"/>
</linearGradient>
</defs>
</svg>
