<svg width="48" height="48" viewBox="0 0 48 48" fill="none" xmlns="http://www.w3.org/2000/svg">
<g filter="url(#filter0_i_17_580)">
<path fill-rule="evenodd" clip-rule="evenodd" d="M18 4C9.16344 4 2 11.1634 2 20L2.00337 20.3313C2.16721 28.3732 8.28258 35.0157 16.2043 35.9002L16.468 35.927L16.5604 35.9515C16.7019 35.9833 16.849 36 17 36H35L35.2943 35.996C41.262 35.8234 46 30.9545 46 25C46 18.9249 41.0751 14 35 14L34.5683 14.0083C34.1378 14.025 33.7111 14.0666 33.2899 14.1325L32.915 14.198L32.8113 13.9358C30.3965 8.033 24.6037 4 18 4Z" fill="url(#paint0_linear_17_580)"/>
</g>
<path fill-rule="evenodd" clip-rule="evenodd" d="M38 34C39.1046 34 40 34.8954 40 36C40 37.1046 39.1046 38 38 38H24C22.8954 38 22 37.1046 22 36C22 34.8954 22.8954 34 24 34H38ZM18 34C19.1046 34 20 34.8954 20 36C20 37.1046 19.1046 38 18 38H16C14.8954 38 14 37.1046 14 36C14 34.8954 14.8954 34 16 34H18ZM33 40C34.1046 40 35 40.8954 35 42C35 43.1046 34.1046 44 33 44H11C9.89543 44 9 43.1046 9 42C9 40.8954 9.89543 40 11 40H33Z" fill="url(#paint1_linear_17_580)"/>
<defs>
<filter id="filter0_i_17_580" x="0" y="4" width="46" height="36" filterUnits="userSpaceOnUse" color-interpolation-filters="sRGB">
<feFlood flood-opacity="0" result="BackgroundImageFix"/>
<feBlend mode="normal" in="SourceGraphic" in2="BackgroundImageFix" result="shape"/>
<feOffset in="SourceAlpha" dx="-2" dy="4"/>
<feGaussianBlur stdDeviation="2"/>
<feComposite in="SourceAlpha" operator="out" result="innerShadowMask"/>
<feFlood flood-color="white"/>
<feComposite in2="innerShadowMask" operator="in"/>
<feBlend mode="normal" in2="shape" result="effect1_innerShadow_17_580"/>
</filter>
<linearGradient id="paint0_linear_17_580" x1="5.08244" y1="4" x2="46.4873" y2="35.3565" gradientUnits="userSpaceOnUse">
<stop stop-color="white"/>
<stop offset="1" stop-color="#B4E6FB"/>
</linearGradient>
<linearGradient id="paint1_linear_17_580" x1="9" y1="34" x2="9" y2="44" gradientUnits="userSpaceOnUse">
<stop stop-color="#4CAFFF"/>
<stop offset="1" stop-color="#8FD5FF"/>
</linearGradient>
</defs>
</svg>
