<svg width="48" height="48" viewBox="0 0 48 48" fill="none" xmlns="http://www.w3.org/2000/svg">
<g filter="url(#filter0_i_2030_908)">
<path fill-rule="evenodd" clip-rule="evenodd" d="M18 4C9.16344 4 2 11.1634 2 20L2.00337 20.3313C2.16721 28.3732 8.28258 35.0157 16.2043 35.9002L16.468 35.927L16.5604 35.9515C16.7019 35.9833 16.849 36 17 36H35L35.2943 35.996C41.262 35.8234 46 30.9545 46 25C46 18.9249 41.0751 14 35 14L34.5683 14.0083C34.1378 14.025 33.7111 14.0666 33.2899 14.1325L32.915 14.198L32.8113 13.9358C30.3965 8.033 24.6037 4 18 4Z" fill="url(#paint0_linear_2030_908)"/>
</g>
<path fill-rule="evenodd" clip-rule="evenodd" d="M20.8612 36.4257L22.695 39.482C22.885 39.7987 22.885 40.1943 22.695 40.511L20.8612 43.5673C20.5771 44.0409 19.9628 44.1945 19.4892 43.9103C19.3485 43.8259 19.2307 43.7081 19.1462 43.5673L17.3124 40.511C17.1224 40.1943 17.1224 39.7987 17.3124 39.482L19.1462 36.4257C19.4304 35.9521 20.0446 35.7985 20.5182 36.0827C20.659 36.1671 20.7768 36.2849 20.8612 36.4257ZM28.8612 36.4257L30.695 39.482C30.885 39.7987 30.885 40.1943 30.695 40.511L28.8612 43.5673C28.5771 44.0409 27.9628 44.1945 27.4892 43.9103C27.3485 43.8259 27.2307 43.7081 27.1462 43.5673L25.3124 40.511C25.1224 40.1943 25.1224 39.7987 25.3124 39.482L27.1462 36.4257C27.4304 35.9521 28.0446 35.7985 28.5182 36.0827C28.659 36.1671 28.7768 36.2849 28.8612 36.4257Z" fill="url(#paint1_linear_2030_908)"/>
<defs>
<filter id="filter0_i_2030_908" x="0" y="4" width="46" height="36" filterUnits="userSpaceOnUse" color-interpolation-filters="sRGB">
<feFlood flood-opacity="0" result="BackgroundImageFix"/>
<feBlend mode="normal" in="SourceGraphic" in2="BackgroundImageFix" result="shape"/>
<feOffset in="SourceAlpha" dx="-2" dy="4"/>
<feGaussianBlur stdDeviation="2"/>
<feComposite in="SourceAlpha" operator="out" result="innerShadowMask"/>
<feFlood flood-color="white"/>
<feComposite in2="innerShadowMask" operator="in"/>
<feBlend mode="normal" in2="shape" result="effect1_innerShadow_2030_908"/>
</filter>
<linearGradient id="paint0_linear_2030_908" x1="5.08244" y1="4" x2="46.4873" y2="35.3565" gradientUnits="userSpaceOnUse">
<stop stop-color="white"/>
<stop offset="1" stop-color="#B4E6FB"/>
</linearGradient>
<linearGradient id="paint1_linear_2030_908" x1="9.16992" y1="35.94" x2="9.16992" y2="44.053" gradientUnits="userSpaceOnUse">
<stop stop-color="#4CAFFF"/>
<stop offset="1" stop-color="#8FD5FF"/>
</linearGradient>
</defs>
</svg>
