<svg width="48" height="48" viewBox="0 0 48 48" fill="none" xmlns="http://www.w3.org/2000/svg">
<g filter="url(#filter0_i_17_1126)">
<path fill-rule="evenodd" clip-rule="evenodd" d="M38.435 33.6066L39.8492 35.0208C40.6303 35.8019 40.6303 37.0682 39.8492 37.8492C39.0682 38.6303 37.8019 38.6303 37.0208 37.8492L35.6066 36.435C34.8256 35.654 34.8256 34.3876 35.6066 33.6066C36.3876 32.8256 37.654 32.8256 38.435 33.6066ZM25 10C32.1797 10 38 15.8203 38 23C38 30.1797 32.1797 36 25 36C17.8203 36 12 30.1797 12 23C12 15.8203 17.8203 10 25 10ZM44 21C45.1046 21 46 21.8954 46 23C46 24.1046 45.1046 25 44 25H42C40.8954 25 40 24.1046 40 23C40 21.8954 40.8954 21 42 21H44ZM8 21C9.10457 21 10 21.8954 10 23C10 24.1046 9.10457 25 8 25H6C4.89543 25 4 24.1046 4 23C4 21.8954 4.89543 21 6 21H8ZM12.9792 8.15076L14.3934 9.56497C15.1744 10.346 15.1744 11.6123 14.3934 12.3934C13.6123 13.1744 12.346 13.1744 11.565 12.3934L10.1508 10.9792C9.36971 10.1981 9.36971 8.93181 10.1508 8.15076C10.9318 7.36971 12.1981 7.36971 12.9792 8.15076ZM39.8492 8.15076C40.6303 8.93181 40.6303 10.1981 39.8492 10.9792L38.435 12.3934C37.654 13.1744 36.3876 13.1744 35.6066 12.3934C34.8256 11.6123 34.8256 10.346 35.6066 9.56497L37.0208 8.15076C37.8019 7.36971 39.0682 7.36971 39.8492 8.15076ZM25 2C26.1046 2 27 2.89543 27 4V6C27 7.10457 26.1046 8 25 8C23.8954 8 23 7.10457 23 6V4C23 2.89543 23.8954 2 25 2Z" fill="url(#paint0_linear_17_1126)"/>
</g>
<g filter="url(#filter1_i_17_1126)">
<path fill-rule="evenodd" clip-rule="evenodd" d="M13.7 24C17.4459 24 20.7613 26.1403 22.3717 29.3475L22.458 29.526L22.7094 29.5082L23.05 29.5C26.8884 29.5 30 32.6116 30 36.45C30 40.2884 26.8884 43.4 23.05 43.4H13.15C12.9996 43.4 12.853 43.3834 12.712 43.3519L12.698 43.347L12.4713 43.3228C7.75979 42.7272 4.13635 38.768 4.00376 33.9723L4 33.7C4 28.3428 8.34284 24 13.7 24Z" fill="url(#paint1_linear_17_1126)"/>
</g>
<defs>
<filter id="filter0_i_17_1126" x="4" y="2" width="42" height="38.435" filterUnits="userSpaceOnUse" color-interpolation-filters="sRGB">
<feFlood flood-opacity="0" result="BackgroundImageFix"/>
<feBlend mode="normal" in="SourceGraphic" in2="BackgroundImageFix" result="shape"/>
<feOffset in="SourceAlpha" dy="2"/>
<feGaussianBlur stdDeviation="4"/>
<feComposite in="SourceAlpha" operator="out" result="innerShadowMask"/>
<feFlood flood-color="white"/>
<feComposite in2="innerShadowMask" operator="in"/>
<feBlend mode="overlay" in2="shape" result="effect1_innerShadow_17_1126"/>
</filter>
<filter id="filter1_i_17_1126" x="2" y="24" width="28" height="23.4" filterUnits="userSpaceOnUse" color-interpolation-filters="sRGB">
<feFlood flood-opacity="0" result="BackgroundImageFix"/>
<feBlend mode="normal" in="SourceGraphic" in2="BackgroundImageFix" result="shape"/>
<feOffset in="SourceAlpha" dx="-2" dy="4"/>
<feGaussianBlur stdDeviation="2"/>
<feComposite in="SourceAlpha" operator="out" result="innerShadowMask"/>
<feFlood flood-color="white"/>
<feComposite in2="innerShadowMask" operator="in"/>
<feBlend mode="normal" in2="shape" result="effect1_innerShadow_17_1126"/>
</filter>
<linearGradient id="paint0_linear_17_1126" x1="25" y1="2" x2="25" y2="38.435" gradientUnits="userSpaceOnUse">
<stop stop-color="#FFD358"/>
<stop offset="1" stop-color="#FA6C21"/>
</linearGradient>
<linearGradient id="paint1_linear_17_1126" x1="5.82144" y1="24" x2="30.7418" y2="42.395" gradientUnits="userSpaceOnUse">
<stop stop-color="white"/>
<stop offset="1" stop-color="#B4E6FB"/>
</linearGradient>
</defs>
</svg>
