<svg width="48" height="48" viewBox="0 0 48 48" fill="none" xmlns="http://www.w3.org/2000/svg">
<g filter="url(#filter0_i_17_1173)">
<path fill-rule="evenodd" clip-rule="evenodd" d="M24.4184 2.0396C26.2223 1.67516 27.5193 3.73491 26.4112 5.20426C24.9222 7.17854 24.1053 9.57649 24.1053 12.1039C24.1053 18.4406 29.2422 23.5776 35.5789 23.5776C38.106 23.5776 40.504 22.7608 42.4781 21.2726C43.9474 20.1649 46.0067 21.4619 45.6424 23.2656C43.9592 31.5995 36.6055 37.6829 28 37.6829C18.0589 37.6829 10 29.624 10 19.6829C10 11.0771 16.0835 3.72347 24.4184 2.0396Z" fill="url(#paint0_linear_17_1173)"/>
</g>
<g filter="url(#filter1_i_17_1173)">
<path fill-rule="evenodd" clip-rule="evenodd" d="M13.7 24C17.4459 24 20.7613 26.1403 22.3717 29.3475L22.458 29.526L22.7094 29.5082L23.05 29.5C26.8884 29.5 30 32.6116 30 36.45C30 40.2884 26.8884 43.4 23.05 43.4H13.15C12.9996 43.4 12.853 43.3834 12.712 43.3519L12.698 43.347L12.4713 43.3228C7.75979 42.7272 4.13635 38.768 4.00376 33.9723L4 33.7C4 28.3428 8.34284 24 13.7 24Z" fill="url(#paint1_linear_17_1173)"/>
</g>
<defs>
<filter id="filter0_i_17_1173" x="10" y="1.99713" width="35.6848" height="37.6857" filterUnits="userSpaceOnUse" color-interpolation-filters="sRGB">
<feFlood flood-opacity="0" result="BackgroundImageFix"/>
<feBlend mode="normal" in="SourceGraphic" in2="BackgroundImageFix" result="shape"/>
<feOffset in="SourceAlpha" dy="2"/>
<feGaussianBlur stdDeviation="8"/>
<feComposite in="SourceAlpha" operator="out" result="innerShadowMask"/>
<feFlood flood-color="white"/>
<feComposite in2="innerShadowMask" operator="in"/>
<feBlend mode="overlay" in2="shape" result="effect1_innerShadow_17_1173"/>
</filter>
<filter id="filter1_i_17_1173" x="2" y="24" width="28" height="23.4" filterUnits="userSpaceOnUse" color-interpolation-filters="sRGB">
<feFlood flood-opacity="0" result="BackgroundImageFix"/>
<feBlend mode="normal" in="SourceGraphic" in2="BackgroundImageFix" result="shape"/>
<feOffset in="SourceAlpha" dx="-2" dy="4"/>
<feGaussianBlur stdDeviation="2"/>
<feComposite in="SourceAlpha" operator="out" result="innerShadowMask"/>
<feFlood flood-color="white"/>
<feComposite in2="innerShadowMask" operator="in"/>
<feBlend mode="normal" in2="shape" result="effect1_innerShadow_17_1173"/>
</filter>
<linearGradient id="paint0_linear_17_1173" x1="27.8424" y1="1.99713" x2="27.8424" y2="37.6829" gradientUnits="userSpaceOnUse">
<stop stop-color="#FFD358"/>
<stop offset="1" stop-color="#FA6C21"/>
</linearGradient>
<linearGradient id="paint1_linear_17_1173" x1="5.82144" y1="24" x2="30.7418" y2="42.395" gradientUnits="userSpaceOnUse">
<stop stop-color="white"/>
<stop offset="1" stop-color="#B4E6FB"/>
</linearGradient>
</defs>
</svg>
