<svg width="48" height="48" viewBox="0 0 48 48" fill="none" xmlns="http://www.w3.org/2000/svg">
<g filter="url(#filter0_i_17_1105)">
<path fill-rule="evenodd" clip-rule="evenodd" d="M18 8C9.16344 8 2 15.1634 2 24L2.00337 24.3313C2.16721 32.3732 8.28258 39.0157 16.2043 39.9002L16.468 39.927L16.5604 39.9515C16.7019 39.9833 16.849 40 17 40H35L35.2943 39.996C41.262 39.8234 46 34.9545 46 29C46 22.9249 41.0751 18 35 18L34.5683 18.0083C34.1378 18.025 33.7111 18.0666 33.2899 18.1325L32.915 18.198L32.8113 17.9358C30.3965 12.033 24.6037 8 18 8Z" fill="url(#paint0_linear_17_1105)"/>
</g>
<defs>
<filter id="filter0_i_17_1105" x="0" y="8" width="46" height="36" filterUnits="userSpaceOnUse" color-interpolation-filters="sRGB">
<feFlood flood-opacity="0" result="BackgroundImageFix"/>
<feBlend mode="normal" in="SourceGraphic" in2="BackgroundImageFix" result="shape"/>
<feOffset in="SourceAlpha" dx="-2" dy="4"/>
<feGaussianBlur stdDeviation="2"/>
<feComposite in="SourceAlpha" operator="out" result="innerShadowMask"/>
<feFlood flood-color="white"/>
<feComposite in2="innerShadowMask" operator="in"/>
<feBlend mode="normal" in2="shape" result="effect1_innerShadow_17_1105"/>
</filter>
<linearGradient id="paint0_linear_17_1105" x1="5.08244" y1="8" x2="46.4873" y2="39.3565" gradientUnits="userSpaceOnUse">
<stop stop-color="white"/>
<stop offset="1" stop-color="#B4E6FB"/>
</linearGradient>
</defs>
</svg>
