<svg width="48" height="48" viewBox="0 0 48 48" fill="none" xmlns="http://www.w3.org/2000/svg">
<g filter="url(#filter0_i_2030_916)">
<path fill-rule="evenodd" clip-rule="evenodd" d="M31.6118 1.23807C33.4153 0.873506 34.7127 2.93244 33.6053 4.402C32.7724 5.50744 32.3158 6.84813 32.3158 8.26317C32.3158 11.8094 35.1906 14.6842 38.7368 14.6842C40.1518 14.6842 41.4921 14.2277 42.5969 13.395C44.0663 12.2875 46.1254 13.5845 45.7611 15.3881C44.6389 20.9449 39.737 25 34 25C27.3726 25 22 19.6274 22 13C22 7.2632 26.0548 2.36131 31.6118 1.23807Z" fill="url(#paint0_linear_2030_916)"/>
</g>
<g filter="url(#filter1_i_2030_916)">
<path fill-rule="evenodd" clip-rule="evenodd" d="M18 9C9.16344 9 2 16.1634 2 25L2.00337 25.3313C2.16721 33.3732 8.28258 40.0157 16.2043 40.9002L16.468 40.927L16.5604 40.9515C16.7019 40.9833 16.849 41 17 41H35L35.2943 40.996C41.262 40.8234 46 35.9545 46 30C46 23.9249 41.0751 19 35 19L34.5683 19.0083C34.1378 19.025 33.7111 19.0666 33.2899 19.1325L32.915 19.198L32.8113 18.9358C30.3965 13.033 24.6037 9 18 9Z" fill="url(#paint1_linear_2030_916)"/>
</g>
<path fill-rule="evenodd" clip-rule="evenodd" d="M15.1431 38.2572C15.5533 37.2316 16.7173 36.7328 17.7428 37.143C18.7196 37.5337 19.2185 38.608 18.9095 39.5954L18.857 39.7427L16.857 44.7427C16.4468 45.7683 15.2828 46.2671 14.2573 45.8569C13.2805 45.4662 12.7816 44.3918 13.0906 43.4045L13.1431 43.2571L15.1431 38.2572ZM24.1431 38.2572C24.5533 37.2316 25.7173 36.7328 26.7428 37.143C27.7196 37.5337 28.2185 38.608 27.9095 39.5954L27.857 39.7427L25.857 44.7427C25.4468 45.7683 24.2828 46.2671 23.2573 45.8569C22.2805 45.4662 21.7816 44.3918 22.0906 43.4045L22.1431 43.2571L24.1431 38.2572ZM33.1431 38.2572C33.5533 37.2316 34.7173 36.7328 35.7428 37.143C36.7196 37.5337 37.2185 38.608 36.9095 39.5954L36.857 39.7427L34.857 44.7427C34.4468 45.7683 33.2828 46.2671 32.2573 45.8569C31.2805 45.4662 30.7816 44.3918 31.0906 43.4045L31.1431 43.2571L33.1431 38.2572Z" fill="url(#paint2_linear_2030_916)"/>
<path d="M24.2437 28.143C23.2182 27.7328 22.0542 28.2316 21.644 29.2572L19.644 34.2572L19.5915 34.4045C19.2825 35.3919 19.7814 36.4662 20.7582 36.8569C21.7837 37.2671 22.9477 36.7683 23.3579 35.7427L25.3579 30.7427L25.4104 30.5954C25.7194 29.608 25.2205 28.5337 24.2437 28.143Z" fill="url(#paint3_linear_2030_916)"/>
<path d="M33.2437 28.143C32.2182 27.7328 31.0542 28.2316 30.644 29.2572L28.644 34.2572L28.5915 34.4045C28.2825 35.3919 28.7814 36.4662 29.7582 36.8569C30.7837 37.2671 31.9477 36.7683 32.3579 35.7427L34.3579 30.7427L34.4104 30.5954C34.7194 29.608 34.2205 28.5337 33.2437 28.143Z" fill="url(#paint4_linear_2030_916)"/>
<defs>
<filter id="filter0_i_2030_916" x="22" y="1.19556" width="23.8035" height="25.8044" filterUnits="userSpaceOnUse" color-interpolation-filters="sRGB">
<feFlood flood-opacity="0" result="BackgroundImageFix"/>
<feBlend mode="normal" in="SourceGraphic" in2="BackgroundImageFix" result="shape"/>
<feOffset in="SourceAlpha" dy="2"/>
<feGaussianBlur stdDeviation="8"/>
<feComposite in="SourceAlpha" operator="out" result="innerShadowMask"/>
<feFlood flood-color="white"/>
<feComposite in2="innerShadowMask" operator="in"/>
<feBlend mode="overlay" in2="shape" result="effect1_innerShadow_2030_916"/>
</filter>
<filter id="filter1_i_2030_916" x="0" y="9" width="46" height="36" filterUnits="userSpaceOnUse" color-interpolation-filters="sRGB">
<feFlood flood-opacity="0" result="BackgroundImageFix"/>
<feBlend mode="normal" in="SourceGraphic" in2="BackgroundImageFix" result="shape"/>
<feOffset in="SourceAlpha" dx="-2" dy="4"/>
<feGaussianBlur stdDeviation="2"/>
<feComposite in="SourceAlpha" operator="out" result="innerShadowMask"/>
<feFlood flood-color="white"/>
<feComposite in2="innerShadowMask" operator="in"/>
<feBlend mode="normal" in2="shape" result="effect1_innerShadow_2030_916"/>
</filter>
<linearGradient id="paint0_linear_2030_916" x1="33.9018" y1="1.19556" x2="33.9018" y2="25" gradientUnits="userSpaceOnUse">
<stop stop-color="#FFD358"/>
<stop offset="1" stop-color="#FA6C21"/>
</linearGradient>
<linearGradient id="paint1_linear_2030_916" x1="5.08244" y1="9" x2="46.4873" y2="40.3565" gradientUnits="userSpaceOnUse">
<stop stop-color="white"/>
<stop offset="1" stop-color="#B4E6FB"/>
</linearGradient>
<linearGradient id="paint2_linear_2030_916" x1="12.9995" y1="36.9995" x2="12.9995" y2="46.0005" gradientUnits="userSpaceOnUse">
<stop stop-color="#4CAFFF"/>
<stop offset="1" stop-color="#8FD5FF"/>
</linearGradient>
<linearGradient id="paint3_linear_2030_916" x1="12.9995" y1="36.9995" x2="12.9995" y2="46.0005" gradientUnits="userSpaceOnUse">
<stop stop-color="#4CAFFF"/>
<stop offset="1" stop-color="#8FD5FF"/>
</linearGradient>
<linearGradient id="paint4_linear_2030_916" x1="12.9995" y1="36.9995" x2="12.9995" y2="46.0005" gradientUnits="userSpaceOnUse">
<stop stop-color="#4CAFFF"/>
<stop offset="1" stop-color="#8FD5FF"/>
</linearGradient>
</defs>
</svg>
