<svg width="48" height="48" viewBox="0 0 48 48" fill="none" xmlns="http://www.w3.org/2000/svg">
<g filter="url(#filter0_i_17_751)">
<path fill-rule="evenodd" clip-rule="evenodd" d="M21.0452 4.30817L21.2138 4.34574C22.2246 4.61658 22.846 5.61511 22.6656 6.62665L22.628 6.79523L20.6461 14.1908L23.999 19.9991L27.3539 14.1908L25.372 6.79523C25.0861 5.7283 25.7193 4.63163 26.7862 4.34574C27.797 4.07491 28.8345 4.62892 29.1839 5.59517L29.2357 5.75996L30.1824 9.29171L31.768 6.54555C32.3202 5.58896 33.5434 5.26121 34.5 5.81349C35.4131 6.34068 35.7532 7.47915 35.3019 8.41354L35.2321 8.54555L33.6465 11.2917L37.1785 10.3457C38.1893 10.0749 39.2268 10.6289 39.5762 11.5952L39.628 11.76C39.8988 12.7707 39.3448 13.8082 38.3786 14.1577L38.2138 14.2094L30.8181 16.1908L27.464 21.9991L34.171 22L39.5858 16.5858C40.3668 15.8048 41.6332 15.8048 42.4142 16.5858C43.1542 17.3258 43.1931 18.5012 42.531 19.287L42.4142 19.4142L39.828 22H43C44.1046 22 45 22.8955 45 24C45 25.0544 44.1841 25.9182 43.1493 25.9945L43 26H39.828L42.4142 28.5858C43.1542 29.3258 43.1931 30.5012 42.531 31.287L42.4142 31.4142C41.6743 32.1542 40.4988 32.1931 39.713 31.5311L39.5858 31.4142L34.171 26L27.463 25.9991L30.8176 31.8084L38.2138 33.7906C39.2807 34.0765 39.9139 35.1732 39.628 36.2401C39.3572 37.2509 38.3586 37.8723 37.3471 37.6919L37.1785 37.6543L33.646 36.7075L35.2321 39.4545C35.7843 40.4111 35.4566 41.6343 34.5 42.1866C33.5869 42.7137 32.4309 42.4391 31.8473 41.581L31.768 41.4545L30.1819 38.7075L29.2357 42.2401C28.9649 43.2509 27.9663 43.8723 26.9548 43.6919L26.7862 43.6543C25.7754 43.3835 25.154 42.3849 25.3344 41.3734L25.372 41.2048L27.3534 33.8084L23.999 28.0001L20.6466 33.8084L22.628 41.2048C22.9139 42.2718 22.2807 43.3684 21.2138 43.6543C20.203 43.9251 19.1655 43.3711 18.8161 42.4049L18.7643 42.2401L17.8181 38.7075L16.232 41.4545C15.6798 42.4111 14.4566 42.7388 13.5 42.1866C12.5869 41.6594 12.2468 40.5209 12.6981 39.5865L12.7679 39.4545L14.3539 36.7075L10.8215 37.6543C9.81071 37.9251 8.77324 37.3711 8.42375 36.4049L8.372 36.2401C8.10116 35.2293 8.65517 34.1918 9.62142 33.8424L9.78621 33.7906L17.1824 31.8084L20.536 25.9991L13.828 26L8.41421 31.4142C7.63316 32.1953 6.36683 32.1953 5.58579 31.4142C4.84585 30.6743 4.8069 29.4988 5.46895 28.713L5.58579 28.5858L8.171 26H5C3.89543 26 3 25.1046 3 24C3 22.9457 3.81588 22.0819 4.85074 22.0055L5 22H8.171L5.58579 19.4142C4.84585 18.6743 4.8069 17.4988 5.46895 16.713L5.58579 16.5858C6.32573 15.8459 7.50121 15.8069 8.287 16.469L8.41421 16.5858L13.828 22L20.535 21.9991L17.1819 16.1908L9.78621 14.2094C8.71928 13.9236 8.08611 12.8269 8.372 11.76C8.64283 10.7492 9.64136 10.1277 10.6529 10.3082L10.8215 10.3457L14.3534 11.2917L12.7679 8.54555C12.2157 7.58896 12.5434 6.36578 13.5 5.81349C14.4131 5.28631 15.5691 5.56098 16.1527 6.41902L16.232 6.54555L17.8176 9.29171L18.7643 5.75996C19.0351 4.74918 20.0337 4.12771 21.0452 4.30817Z" fill="url(#paint0_linear_17_751)"/>
</g>
<defs>
<filter id="filter0_i_17_751" x="3" y="4.2771" width="42" height="41.4458" filterUnits="userSpaceOnUse" color-interpolation-filters="sRGB">
<feFlood flood-opacity="0" result="BackgroundImageFix"/>
<feBlend mode="normal" in="SourceGraphic" in2="BackgroundImageFix" result="shape"/>
<feOffset in="SourceAlpha" dy="2"/>
<feGaussianBlur stdDeviation="4"/>
<feComposite in="SourceAlpha" operator="out" result="innerShadowMask"/>
<feFlood flood-color="#D4FBFB"/>
<feComposite in2="innerShadowMask" operator="in"/>
<feBlend mode="normal" in2="shape" result="effect1_innerShadow_17_751"/>
</filter>
<linearGradient id="paint0_linear_17_751" x1="3" y1="4.2771" x2="3" y2="43.723" gradientUnits="userSpaceOnUse">
<stop stop-color="#8FD5FF"/>
<stop offset="1" stop-color="#4CAFFF"/>
</linearGradient>
</defs>
</svg>
