<svg width="48" height="48" viewBox="0 0 48 48" fill="none" xmlns="http://www.w3.org/2000/svg">
<g filter="url(#filter0_i_17_807)">
<path fill-rule="evenodd" clip-rule="evenodd" d="M18 4C9.16344 4 2 11.1634 2 20L2.00337 20.3313C2.16721 28.3732 8.28258 35.0157 16.2043 35.9002L16.468 35.927L16.5604 35.9515C16.7019 35.9833 16.849 36 17 36H35L35.2943 35.996C41.262 35.8234 46 30.9545 46 25C46 18.9249 41.0751 14 35 14L34.5683 14.0083C34.1378 14.025 33.7111 14.0666 33.2899 14.1325L32.915 14.198L32.8113 13.9358C30.3965 8.033 24.6037 4 18 4Z" fill="url(#paint0_linear_17_807)"/>
</g>
<path fill-rule="evenodd" clip-rule="evenodd" d="M22 34C23.0544 34 23.9182 34.8159 23.9945 35.8507L24 36V38H26L26.1493 38.0055C27.1841 38.0818 28 38.9456 28 40C28 41.0544 27.1841 41.9182 26.1493 41.9945L26 42H24V44L23.994 44.1567C23.9179 45.1388 23.1324 45.922 22.1493 45.9945L22 46L21.8433 45.994C20.8612 45.9179 20.078 45.1324 20.0055 44.1493L20 44V42H18L17.8507 41.9945C16.8159 41.9182 16 41.0544 16 40C16 38.9456 16.8159 38.0818 17.8507 38.0055L18 38H20V36L20.0055 35.8507C20.0818 34.8159 20.9456 34 22 34ZM31 23C32.0544 23 32.9182 23.8159 32.9945 24.8507L33 25V27H35L35.1493 27.0055C36.1841 27.0818 37 27.9456 37 29C37 30.0544 36.1841 30.9182 35.1493 30.9945L35 31H33V33L32.994 33.1567C32.9179 34.1388 32.1324 34.922 31.1493 34.9945L31 35L30.8433 34.994C29.8612 34.9179 29.078 34.1324 29.0055 33.1493L29 33V31H27L26.8507 30.9945C25.8159 30.9182 25 30.0544 25 29C25 27.9456 25.8159 27.0818 26.8507 27.0055L27 27H29V25L29.0055 24.8507C29.0818 23.8159 29.9456 23 31 23ZM18 19C19.0544 19 19.9182 19.8159 19.9945 20.8507L20 21V23H22L22.1493 23.0055C23.1841 23.0818 24 23.9456 24 25C24 26.0544 23.1841 26.9182 22.1493 26.9945L22 27H20V29L19.994 29.1567C19.9179 30.1388 19.1324 30.922 18.1493 30.9945L18 31L17.8433 30.994C16.8612 30.9179 16.078 30.1324 16.0055 29.1493L16 29V27H14L13.8507 26.9945C12.8159 26.9182 12 26.0544 12 25C12 23.9456 12.8159 23.0818 13.8507 23.0055L14 23H16V21L16.0055 20.8507C16.0818 19.8159 16.9456 19 18 19Z" fill="url(#paint1_linear_17_807)"/>
<defs>
<filter id="filter0_i_17_807" x="0" y="4" width="46" height="36" filterUnits="userSpaceOnUse" color-interpolation-filters="sRGB">
<feFlood flood-opacity="0" result="BackgroundImageFix"/>
<feBlend mode="normal" in="SourceGraphic" in2="BackgroundImageFix" result="shape"/>
<feOffset in="SourceAlpha" dx="-2" dy="4"/>
<feGaussianBlur stdDeviation="2"/>
<feComposite in="SourceAlpha" operator="out" result="innerShadowMask"/>
<feFlood flood-color="white"/>
<feComposite in2="innerShadowMask" operator="in"/>
<feBlend mode="normal" in2="shape" result="effect1_innerShadow_17_807"/>
</filter>
<linearGradient id="paint0_linear_17_807" x1="5.08244" y1="4" x2="46.4873" y2="35.3565" gradientUnits="userSpaceOnUse">
<stop stop-color="white"/>
<stop offset="1" stop-color="#B4E6FB"/>
</linearGradient>
<linearGradient id="paint1_linear_17_807" x1="12" y1="19" x2="12" y2="46" gradientUnits="userSpaceOnUse">
<stop stop-color="#4CAFFF"/>
<stop offset="1" stop-color="#8FD5FF"/>
</linearGradient>
</defs>
</svg>
