<svg width="48" height="48" viewBox="0 0 48 48" fill="none" xmlns="http://www.w3.org/2000/svg">
<g filter="url(#filter0_i_2030_921)">
<path fill-rule="evenodd" clip-rule="evenodd" d="M33 6.99994C37.9706 6.99994 42 11.0294 42 15.9999C42 20.9705 37.9706 24.9999 33 24.9999C28.0294 24.9999 24 20.9705 24 15.9999C24 11.0294 28.0294 6.99994 33 6.99994ZM44.8177 16.0837C45.9223 16.0837 46.8177 16.9792 46.8177 18.0837C46.8177 19.1883 45.9223 20.0837 44.8177 20.0837C43.7131 20.0837 42.8177 19.1883 42.8177 18.0837C42.8177 16.9792 43.7131 16.0837 44.8177 16.0837ZM42.8298 7.11703C43.9344 7.11703 44.8298 8.01246 44.8298 9.11703C44.8298 10.2216 43.9344 11.117 42.8298 11.117C41.7253 11.117 40.8298 10.2216 40.8298 9.11703C40.8298 8.01246 41.7253 7.11703 42.8298 7.11703ZM26.1171 4.17012C27.2217 4.17012 28.1171 5.06555 28.1171 6.17012C28.1171 7.27469 27.2217 8.17012 26.1171 8.17012C25.0125 8.17012 24.1171 7.27469 24.1171 6.17012C24.1171 5.06555 25.0125 4.17012 26.1171 4.17012ZM35.0838 2.18225C36.1883 2.18225 37.0838 3.07768 37.0838 4.18225C37.0838 5.28682 36.1883 6.18225 35.0838 6.18225C33.9792 6.18225 33.0838 5.28682 33.0838 4.18225C33.0838 3.07768 33.9792 2.18225 35.0838 2.18225Z" fill="url(#paint0_linear_2030_921)"/>
</g>
<g filter="url(#filter1_i_2030_921)">
<path fill-rule="evenodd" clip-rule="evenodd" d="M18 9C9.16344 9 2 16.1634 2 25L2.00337 25.3313C2.16721 33.3732 8.28258 40.0157 16.2043 40.9002L16.468 40.927L16.5604 40.9515C16.7019 40.9833 16.849 41 17 41H35L35.2943 40.996C41.262 40.8234 46 35.9545 46 30C46 23.9249 41.0751 19 35 19L34.5683 19.0083C34.1378 19.025 33.7111 19.0666 33.2899 19.1325L32.915 19.198L32.8113 18.9358C30.3965 13.033 24.6037 9 18 9Z" fill="url(#paint1_linear_2030_921)"/>
</g>
<path fill-rule="evenodd" clip-rule="evenodd" d="M24 34C25.0544 34 25.9182 34.8159 25.9945 35.8507L26 36V38H28C29.1046 38 30 38.8954 30 40C30 41.0544 29.1841 41.9182 28.1493 41.9945L28 42H26V44C26 45.1046 25.1046 46 24 46C22.9456 46 22.0818 45.1841 22.0055 44.1493L22 44V42H20C18.8954 42 18 41.1046 18 40C18 38.9456 18.8159 38.0818 19.8507 38.0055L20 38H22V36C22 34.8954 22.8954 34 24 34Z" fill="url(#paint2_linear_2030_921)"/>
<defs>
<filter id="filter0_i_2030_921" x="24" y="2.18225" width="22.8176" height="24.8177" filterUnits="userSpaceOnUse" color-interpolation-filters="sRGB">
<feFlood flood-opacity="0" result="BackgroundImageFix"/>
<feBlend mode="normal" in="SourceGraphic" in2="BackgroundImageFix" result="shape"/>
<feOffset in="SourceAlpha" dy="2"/>
<feGaussianBlur stdDeviation="4"/>
<feComposite in="SourceAlpha" operator="out" result="innerShadowMask"/>
<feFlood flood-color="white"/>
<feComposite in2="innerShadowMask" operator="in"/>
<feBlend mode="overlay" in2="shape" result="effect1_innerShadow_2030_921"/>
</filter>
<filter id="filter1_i_2030_921" x="0" y="9" width="46" height="36" filterUnits="userSpaceOnUse" color-interpolation-filters="sRGB">
<feFlood flood-opacity="0" result="BackgroundImageFix"/>
<feBlend mode="normal" in="SourceGraphic" in2="BackgroundImageFix" result="shape"/>
<feOffset in="SourceAlpha" dx="-2" dy="4"/>
<feGaussianBlur stdDeviation="2"/>
<feComposite in="SourceAlpha" operator="out" result="innerShadowMask"/>
<feFlood flood-color="white"/>
<feComposite in2="innerShadowMask" operator="in"/>
<feBlend mode="normal" in2="shape" result="effect1_innerShadow_2030_921"/>
</filter>
<linearGradient id="paint0_linear_2030_921" x1="35.4088" y1="2.18225" x2="35.4088" y2="24.9999" gradientUnits="userSpaceOnUse">
<stop stop-color="#FFD358"/>
<stop offset="1" stop-color="#FA6C21"/>
</linearGradient>
<linearGradient id="paint1_linear_2030_921" x1="5.08244" y1="9" x2="46.4873" y2="40.3565" gradientUnits="userSpaceOnUse">
<stop stop-color="white"/>
<stop offset="1" stop-color="#B4E6FB"/>
</linearGradient>
<linearGradient id="paint2_linear_2030_921" x1="4" y1="34" x2="4" y2="46" gradientUnits="userSpaceOnUse">
<stop stop-color="#4CAFFF"/>
<stop offset="1" stop-color="#8FD5FF"/>
</linearGradient>
</defs>
</svg>
