<svg width="48" height="48" viewBox="0 0 48 48" fill="none" xmlns="http://www.w3.org/2000/svg">
<g filter="url(#filter0_i_17_1055)">
<path fill-rule="evenodd" clip-rule="evenodd" d="M18 4C9.16344 4 2 11.1634 2 20L2.00337 20.3313C2.16721 28.3732 8.28258 35.0157 16.2043 35.9002L16.468 35.927L16.5604 35.9515C16.7019 35.9833 16.849 36 17 36H35L35.2943 35.996C41.262 35.8234 46 30.9545 46 25C46 18.9249 41.0751 14 35 14L34.5683 14.0083C34.1378 14.025 33.7111 14.0666 33.2899 14.1325L32.915 14.198L32.8113 13.9358C30.3965 8.033 24.6037 4 18 4Z" fill="url(#paint0_linear_17_1055)"/>
</g>
<g filter="url(#filter1_i_17_1055)">
<path fill-rule="evenodd" clip-rule="evenodd" d="M32.1999 24.4L27.9999 30L31.2438 30.2949C32.0688 30.3699 32.6768 31.0995 32.6018 31.9245C32.5836 32.1249 32.5252 32.3196 32.4302 32.497L25.7585 44.9526C24.6891 46.9267 21.7215 45.9051 22.0143 43.7529L22.0387 43.6078L23.6229 35.68L17.8635 34.7885C17.0448 34.6618 16.4839 33.8954 16.6106 33.0767C16.628 32.9644 16.6581 32.8545 16.7003 32.7491L20.497 23.2572C20.8007 22.4979 21.5361 22 22.354 22H30.9999C31.8283 22 32.4999 22.6716 32.4999 23.5C32.4999 23.8246 32.3946 24.1404 32.1999 24.4Z" fill="url(#paint1_linear_17_1055)"/>
</g>
<path fill-rule="evenodd" clip-rule="evenodd" d="M14.1431 36.2572C14.5533 35.2316 15.7173 34.7328 16.7428 35.143C17.7196 35.5337 18.2185 36.6081 17.9095 37.5954L17.857 37.7428L15.857 42.7428C15.4468 43.7683 14.2828 44.2672 13.2573 43.8569C12.2805 43.4663 11.7816 42.3919 12.0906 41.4046L12.1431 41.2572L14.1431 36.2572ZM7.14309 36.2572C7.55332 35.2316 8.71726 34.7328 9.74283 35.143C10.7196 35.5337 11.2185 36.6081 10.9095 37.5954L10.857 37.7428L8.857 42.7428C8.44677 43.7683 7.28283 44.2672 6.25726 43.8569C5.28053 43.4663 4.78157 42.3919 5.09063 41.4046L5.14309 41.2572L7.14309 36.2572ZM34.1431 36.2572C34.5533 35.2316 35.7173 34.7328 36.7428 35.143C37.7196 35.5337 38.2185 36.6081 37.9095 37.5954L37.857 37.7428L35.857 42.7428C35.4468 43.7683 34.2828 44.2672 33.2573 43.8569C32.2805 43.4663 31.7816 42.3919 32.0906 41.4046L32.1431 41.2572L34.1431 36.2572ZM41.1431 36.2572C41.5533 35.2316 42.7173 34.7328 43.7428 35.143C44.7196 35.5337 45.2185 36.6081 44.9095 37.5954L44.857 37.7428L42.857 42.7428C42.4468 43.7683 41.2828 44.2672 40.2573 43.8569C39.2805 43.4663 38.7816 42.3919 39.0906 41.4046L39.1431 41.2572L41.1431 36.2572Z" fill="url(#paint2_linear_17_1055)"/>
<defs>
<filter id="filter0_i_17_1055" x="0" y="4" width="46" height="36" filterUnits="userSpaceOnUse" color-interpolation-filters="sRGB">
<feFlood flood-opacity="0" result="BackgroundImageFix"/>
<feBlend mode="normal" in="SourceGraphic" in2="BackgroundImageFix" result="shape"/>
<feOffset in="SourceAlpha" dx="-2" dy="4"/>
<feGaussianBlur stdDeviation="2"/>
<feComposite in="SourceAlpha" operator="out" result="innerShadowMask"/>
<feFlood flood-color="white"/>
<feComposite in2="innerShadowMask" operator="in"/>
<feBlend mode="normal" in2="shape" result="effect1_innerShadow_17_1055"/>
</filter>
<filter id="filter1_i_17_1055" x="16.5928" y="22" width="16.0154" height="26.008" filterUnits="userSpaceOnUse" color-interpolation-filters="sRGB">
<feFlood flood-opacity="0" result="BackgroundImageFix"/>
<feBlend mode="normal" in="SourceGraphic" in2="BackgroundImageFix" result="shape"/>
<feOffset in="SourceAlpha" dy="2"/>
<feGaussianBlur stdDeviation="4"/>
<feComposite in="SourceAlpha" operator="out" result="innerShadowMask"/>
<feFlood flood-color="white"/>
<feComposite in2="innerShadowMask" operator="in"/>
<feBlend mode="overlay" in2="shape" result="effect1_innerShadow_17_1055"/>
</filter>
<linearGradient id="paint0_linear_17_1055" x1="5.08244" y1="4" x2="46.4873" y2="35.3565" gradientUnits="userSpaceOnUse">
<stop stop-color="white"/>
<stop offset="1" stop-color="#B4E6FB"/>
</linearGradient>
<linearGradient id="paint1_linear_17_1055" x1="24.6004" y1="22" x2="24.6004" y2="46.0081" gradientUnits="userSpaceOnUse">
<stop stop-color="#FA6C21"/>
<stop offset="1" stop-color="#FFD358"/>
</linearGradient>
<linearGradient id="paint2_linear_17_1055" x1="4.99951" y1="34.9995" x2="4.99951" y2="44.0005" gradientUnits="userSpaceOnUse">
<stop stop-color="#4CAFFF"/>
<stop offset="1" stop-color="#8FD5FF"/>
</linearGradient>
</defs>
</svg>
